<?xml version="1.0" encoding="utf-8"?>
<svg xmlns="http://www.w3.org/2000/svg" xmlns:xlink="http://www.w3.org/1999/xlink" width="600" height="400" viewBox="0 0 2400 1600">
<defs>
  <clipPath id="clip370">
    <rect x="0" y="0" width="2400" height="1600"/>
  </clipPath>
</defs>
<path clip-path="url(#clip370)" d="
M0 1600 L2400 1600 L2400 0 L0 0  Z
  " fill="#ffffff" fill-rule="evenodd" fill-opacity="1"/>
<defs>
  <clipPath id="clip371">
    <rect x="480" y="0" width="1681" height="1600"/>
  </clipPath>
</defs>
<path clip-path="url(#clip370)" d="
M234.125 1423.18 L2352.76 1423.18 L2352.76 47.2441 L234.125 47.2441  Z
  " fill="#ffffff" fill-rule="evenodd" fill-opacity="1"/>
<defs>
  <clipPath id="clip372">
    <rect x="234" y="47" width="2120" height="1377"/>
  </clipPath>
</defs>
<polyline clip-path="url(#clip372)" style="stroke:#000000; stroke-linecap:round; stroke-linejoin:round; stroke-width:2; stroke-opacity:0.1; fill:none" points="
  294.087,1423.18 294.087,47.2441 
  "/>
<polyline clip-path="url(#clip372)" style="stroke:#000000; stroke-linecap:round; stroke-linejoin:round; stroke-width:2; stroke-opacity:0.1; fill:none" points="
  922.611,1423.18 922.611,47.2441 
  "/>
<polyline clip-path="url(#clip372)" style="stroke:#000000; stroke-linecap:round; stroke-linejoin:round; stroke-width:2; stroke-opacity:0.1; fill:none" points="
  1551.14,1423.18 1551.14,47.2441 
  "/>
<polyline clip-path="url(#clip372)" style="stroke:#000000; stroke-linecap:round; stroke-linejoin:round; stroke-width:2; stroke-opacity:0.1; fill:none" points="
  2179.66,1423.18 2179.66,47.2441 
  "/>
<polyline clip-path="url(#clip370)" style="stroke:#000000; stroke-linecap:round; stroke-linejoin:round; stroke-width:4; stroke-opacity:1; fill:none" points="
  234.125,1423.18 2352.76,1423.18 
  "/>
<polyline clip-path="url(#clip370)" style="stroke:#000000; stroke-linecap:round; stroke-linejoin:round; stroke-width:4; stroke-opacity:1; fill:none" points="
  234.125,47.2441 2352.76,47.2441 
  "/>
<polyline clip-path="url(#clip370)" style="stroke:#000000; stroke-linecap:round; stroke-linejoin:round; stroke-width:4; stroke-opacity:1; fill:none" points="
  294.087,1423.18 294.087,1404.28 
  "/>
<polyline clip-path="url(#clip370)" style="stroke:#000000; stroke-linecap:round; stroke-linejoin:round; stroke-width:4; stroke-opacity:1; fill:none" points="
  922.611,1423.18 922.611,1404.28 
  "/>
<polyline clip-path="url(#clip370)" style="stroke:#000000; stroke-linecap:round; stroke-linejoin:round; stroke-width:4; stroke-opacity:1; fill:none" points="
  1551.14,1423.18 1551.14,1404.28 
  "/>
<polyline clip-path="url(#clip370)" style="stroke:#000000; stroke-linecap:round; stroke-linejoin:round; stroke-width:4; stroke-opacity:1; fill:none" points="
  2179.66,1423.18 2179.66,1404.28 
  "/>
<path clip-path="url(#clip370)" d="M294.087 1454.1 Q290.476 1454.1 288.647 1457.66 Q286.841 1461.2 286.841 1468.33 Q286.841 1475.44 288.647 1479.01 Q290.476 1482.55 294.087 1482.55 Q297.721 1482.55 299.526 1479.01 Q301.355 1475.44 301.355 1468.33 Q301.355 1461.2 299.526 1457.66 Q297.721 1454.1 294.087 1454.1 M294.087 1450.39 Q299.897 1450.39 302.952 1455 Q306.031 1459.58 306.031 1468.33 Q306.031 1477.06 302.952 1481.67 Q299.897 1486.25 294.087 1486.25 Q288.277 1486.25 285.198 1481.67 Q282.142 1477.06 282.142 1468.33 Q282.142 1459.58 285.198 1455 Q288.277 1450.39 294.087 1450.39 Z" fill="#000000" fill-rule="evenodd" fill-opacity="1" /><path clip-path="url(#clip370)" d="M912.889 1451.02 L931.245 1451.02 L931.245 1454.96 L917.171 1454.96 L917.171 1463.43 Q918.19 1463.08 919.208 1462.92 Q920.227 1462.73 921.245 1462.73 Q927.032 1462.73 930.412 1465.9 Q933.792 1469.08 933.792 1474.49 Q933.792 1480.07 930.32 1483.17 Q926.847 1486.25 920.528 1486.25 Q918.352 1486.25 916.083 1485.88 Q913.838 1485.51 911.431 1484.77 L911.431 1480.07 Q913.514 1481.2 915.736 1481.76 Q917.958 1482.32 920.435 1482.32 Q924.44 1482.32 926.778 1480.21 Q929.116 1478.1 929.116 1474.49 Q929.116 1470.88 926.778 1468.77 Q924.44 1466.67 920.435 1466.67 Q918.56 1466.67 916.685 1467.08 Q914.833 1467.5 912.889 1468.38 L912.889 1451.02 Z" fill="#000000" fill-rule="evenodd" fill-opacity="1" /><path clip-path="url(#clip370)" d="M1525.82 1481.64 L1533.46 1481.64 L1533.46 1455.28 L1525.15 1456.95 L1525.15 1452.69 L1533.42 1451.02 L1538.09 1451.02 L1538.09 1481.64 L1545.73 1481.64 L1545.73 1485.58 L1525.82 1485.58 L1525.82 1481.64 Z" fill="#000000" fill-rule="evenodd" fill-opacity="1" /><path clip-path="url(#clip370)" d="M1565.18 1454.1 Q1561.56 1454.1 1559.74 1457.66 Q1557.93 1461.2 1557.93 1468.33 Q1557.93 1475.44 1559.74 1479.01 Q1561.56 1482.55 1565.18 1482.55 Q1568.81 1482.55 1570.61 1479.01 Q1572.44 1475.44 1572.44 1468.33 Q1572.44 1461.2 1570.61 1457.66 Q1568.81 1454.1 1565.18 1454.1 M1565.18 1450.39 Q1570.99 1450.39 1574.04 1455 Q1577.12 1459.58 1577.12 1468.33 Q1577.12 1477.06 1574.04 1481.67 Q1570.99 1486.25 1565.18 1486.25 Q1559.36 1486.25 1556.29 1481.67 Q1553.23 1477.06 1553.23 1468.33 Q1553.23 1459.58 1556.29 1455 Q1559.36 1450.39 1565.18 1450.39 Z" fill="#000000" fill-rule="evenodd" fill-opacity="1" /><path clip-path="url(#clip370)" d="M2154.85 1481.64 L2162.48 1481.64 L2162.48 1455.28 L2154.17 1456.95 L2154.17 1452.69 L2162.44 1451.02 L2167.11 1451.02 L2167.11 1481.64 L2174.75 1481.64 L2174.75 1485.58 L2154.85 1485.58 L2154.85 1481.64 Z" fill="#000000" fill-rule="evenodd" fill-opacity="1" /><path clip-path="url(#clip370)" d="M2184.24 1451.02 L2202.6 1451.02 L2202.6 1454.96 L2188.53 1454.96 L2188.53 1463.43 Q2189.54 1463.08 2190.56 1462.92 Q2191.58 1462.73 2192.6 1462.73 Q2198.39 1462.73 2201.77 1465.9 Q2205.15 1469.08 2205.15 1474.49 Q2205.15 1480.07 2201.67 1483.17 Q2198.2 1486.25 2191.88 1486.25 Q2189.71 1486.25 2187.44 1485.88 Q2185.19 1485.51 2182.79 1484.77 L2182.79 1480.07 Q2184.87 1481.2 2187.09 1481.76 Q2189.31 1482.32 2191.79 1482.32 Q2195.79 1482.32 2198.13 1480.21 Q2200.47 1478.1 2200.47 1474.49 Q2200.47 1470.88 2198.13 1468.77 Q2195.79 1466.67 2191.79 1466.67 Q2189.91 1466.67 2188.04 1467.08 Q2186.19 1467.5 2184.24 1468.38 L2184.24 1451.02 Z" fill="#000000" fill-rule="evenodd" fill-opacity="1" /><path clip-path="url(#clip370)" d="M1160.7 1522.27 L1160.7 1532.4 L1172.76 1532.4 L1172.76 1536.95 L1160.7 1536.95 L1160.7 1556.3 Q1160.7 1560.66 1161.88 1561.9 Q1163.09 1563.14 1166.75 1563.14 L1172.76 1563.14 L1172.76 1568.04 L1166.75 1568.04 Q1159.97 1568.04 1157.39 1565.53 Q1154.81 1562.98 1154.81 1556.3 L1154.81 1536.95 L1150.51 1536.95 L1150.51 1532.4 L1154.81 1532.4 L1154.81 1522.27 L1160.7 1522.27 Z" fill="#000000" fill-rule="evenodd" fill-opacity="1" /><path clip-path="url(#clip370)" d="M1180.47 1532.4 L1186.32 1532.4 L1186.32 1568.04 L1180.47 1568.04 L1180.47 1532.4 M1180.47 1518.52 L1186.32 1518.52 L1186.32 1525.93 L1180.47 1525.93 L1180.47 1518.52 Z" fill="#000000" fill-rule="evenodd" fill-opacity="1" /><path clip-path="url(#clip370)" d="M1226.33 1539.24 Q1228.53 1535.29 1231.58 1533.41 Q1234.64 1531.54 1238.78 1531.54 Q1244.35 1531.54 1247.37 1535.45 Q1250.39 1539.33 1250.39 1546.53 L1250.39 1568.04 L1244.5 1568.04 L1244.5 1546.72 Q1244.5 1541.59 1242.69 1539.11 Q1240.88 1536.63 1237.15 1536.63 Q1232.6 1536.63 1229.96 1539.65 Q1227.32 1542.68 1227.32 1547.9 L1227.32 1568.04 L1221.43 1568.04 L1221.43 1546.72 Q1221.43 1541.56 1219.61 1539.11 Q1217.8 1536.63 1214.01 1536.63 Q1209.52 1536.63 1206.88 1539.68 Q1204.24 1542.71 1204.24 1547.9 L1204.24 1568.04 L1198.35 1568.04 L1198.35 1532.4 L1204.24 1532.4 L1204.24 1537.93 Q1206.25 1534.66 1209.05 1533.1 Q1211.85 1531.54 1215.7 1531.54 Q1219.58 1531.54 1222.29 1533.51 Q1225.03 1535.48 1226.33 1539.24 Z" fill="#000000" fill-rule="evenodd" fill-opacity="1" /><path clip-path="url(#clip370)" d="M1292.57 1548.76 L1292.57 1551.62 L1265.64 1551.62 Q1266.02 1557.67 1269.27 1560.85 Q1272.55 1564 1278.37 1564 Q1281.74 1564 1284.89 1563.17 Q1288.08 1562.35 1291.2 1560.69 L1291.2 1566.23 Q1288.05 1567.57 1284.74 1568.27 Q1281.43 1568.97 1278.02 1568.97 Q1269.49 1568.97 1264.49 1564 Q1259.53 1559.04 1259.53 1550.57 Q1259.53 1541.82 1264.24 1536.69 Q1268.98 1531.54 1277 1531.54 Q1284.19 1531.54 1288.36 1536.18 Q1292.57 1540.8 1292.57 1548.76 M1286.71 1547.04 Q1286.65 1542.23 1284 1539.37 Q1281.39 1536.5 1277.06 1536.5 Q1272.16 1536.5 1269.2 1539.27 Q1266.28 1542.04 1265.83 1547.07 L1286.71 1547.04 Z" fill="#000000" fill-rule="evenodd" fill-opacity="1" /><path clip-path="url(#clip370)" d="M1303.67 1559.96 L1310.39 1559.96 L1310.39 1565.43 L1305.17 1575.62 L1301.06 1575.62 L1303.67 1565.43 L1303.67 1559.96 Z" fill="#000000" fill-rule="evenodd" fill-opacity="1" /><path clip-path="url(#clip370)" d="M1373.25 1546.53 L1373.25 1568.04 L1367.39 1568.04 L1367.39 1546.72 Q1367.39 1541.66 1365.42 1539.14 Q1363.45 1536.63 1359.5 1536.63 Q1354.76 1536.63 1352.02 1539.65 Q1349.28 1542.68 1349.28 1547.9 L1349.28 1568.04 L1343.4 1568.04 L1343.4 1518.52 L1349.28 1518.52 L1349.28 1537.93 Q1351.38 1534.72 1354.22 1533.13 Q1357.08 1531.54 1360.81 1531.54 Q1366.95 1531.54 1370.1 1535.36 Q1373.25 1539.14 1373.25 1546.53 Z" fill="#000000" fill-rule="evenodd" fill-opacity="1" /><path clip-path="url(#clip370)" d="M1405.59 1537.87 Q1404.6 1537.3 1403.42 1537.04 Q1402.28 1536.76 1400.88 1536.76 Q1395.91 1536.76 1393.24 1540 Q1390.6 1543.22 1390.6 1549.27 L1390.6 1568.04 L1384.71 1568.04 L1384.71 1532.4 L1390.6 1532.4 L1390.6 1537.93 Q1392.44 1534.69 1395.4 1533.13 Q1398.36 1531.54 1402.6 1531.54 Q1403.2 1531.54 1403.93 1531.63 Q1404.67 1531.7 1405.56 1531.85 L1405.59 1537.87 Z" fill="#000000" fill-rule="evenodd" fill-opacity="1" /><path clip-path="url(#clip370)" d="M1434.46 1533.45 L1434.46 1538.98 Q1431.97 1537.71 1429.3 1537.07 Q1426.63 1536.44 1423.76 1536.44 Q1419.4 1536.44 1417.21 1537.77 Q1415.04 1539.11 1415.04 1541.79 Q1415.04 1543.82 1416.6 1545 Q1418.16 1546.15 1422.87 1547.2 L1424.88 1547.64 Q1431.11 1548.98 1433.72 1551.43 Q1436.37 1553.85 1436.37 1558.21 Q1436.37 1563.17 1432.42 1566.07 Q1428.51 1568.97 1421.63 1568.97 Q1418.77 1568.97 1415.65 1568.39 Q1412.56 1567.85 1409.12 1566.74 L1409.12 1560.69 Q1412.37 1562.38 1415.52 1563.24 Q1418.67 1564.07 1421.76 1564.07 Q1425.9 1564.07 1428.12 1562.66 Q1430.35 1561.23 1430.35 1558.65 Q1430.35 1556.27 1428.73 1554.99 Q1427.14 1553.72 1421.69 1552.54 L1419.66 1552.07 Q1414.21 1550.92 1411.8 1548.56 Q1409.38 1546.18 1409.38 1542.04 Q1409.38 1537.01 1412.94 1534.27 Q1416.51 1531.54 1423.06 1531.54 Q1426.31 1531.54 1429.17 1532.01 Q1432.04 1532.49 1434.46 1533.45 Z" fill="#000000" fill-rule="evenodd" fill-opacity="1" /><polyline clip-path="url(#clip372)" style="stroke:#000000; stroke-linecap:round; stroke-linejoin:round; stroke-width:2; stroke-opacity:0.1; fill:none" points="
  234.125,1357.2 2352.76,1357.2 
  "/>
<polyline clip-path="url(#clip372)" style="stroke:#000000; stroke-linecap:round; stroke-linejoin:round; stroke-width:2; stroke-opacity:0.1; fill:none" points="
  234.125,1042.74 2352.76,1042.74 
  "/>
<polyline clip-path="url(#clip372)" style="stroke:#000000; stroke-linecap:round; stroke-linejoin:round; stroke-width:2; stroke-opacity:0.1; fill:none" points="
  234.125,728.294 2352.76,728.294 
  "/>
<polyline clip-path="url(#clip372)" style="stroke:#000000; stroke-linecap:round; stroke-linejoin:round; stroke-width:2; stroke-opacity:0.1; fill:none" points="
  234.125,413.843 2352.76,413.843 
  "/>
<polyline clip-path="url(#clip372)" style="stroke:#000000; stroke-linecap:round; stroke-linejoin:round; stroke-width:2; stroke-opacity:0.1; fill:none" points="
  234.125,99.3926 2352.76,99.3926 
  "/>
<polyline clip-path="url(#clip370)" style="stroke:#000000; stroke-linecap:round; stroke-linejoin:round; stroke-width:4; stroke-opacity:1; fill:none" points="
  234.125,1423.18 234.125,47.2441 
  "/>
<polyline clip-path="url(#clip370)" style="stroke:#000000; stroke-linecap:round; stroke-linejoin:round; stroke-width:4; stroke-opacity:1; fill:none" points="
  2352.76,1423.18 2352.76,47.2441 
  "/>
<polyline clip-path="url(#clip370)" style="stroke:#000000; stroke-linecap:round; stroke-linejoin:round; stroke-width:4; stroke-opacity:1; fill:none" points="
  234.125,1357.2 253.023,1357.2 
  "/>
<polyline clip-path="url(#clip370)" style="stroke:#000000; stroke-linecap:round; stroke-linejoin:round; stroke-width:4; stroke-opacity:1; fill:none" points="
  234.125,1042.74 253.023,1042.74 
  "/>
<polyline clip-path="url(#clip370)" style="stroke:#000000; stroke-linecap:round; stroke-linejoin:round; stroke-width:4; stroke-opacity:1; fill:none" points="
  234.125,728.294 253.023,728.294 
  "/>
<polyline clip-path="url(#clip370)" style="stroke:#000000; stroke-linecap:round; stroke-linejoin:round; stroke-width:4; stroke-opacity:1; fill:none" points="
  234.125,413.843 253.023,413.843 
  "/>
<polyline clip-path="url(#clip370)" style="stroke:#000000; stroke-linecap:round; stroke-linejoin:round; stroke-width:4; stroke-opacity:1; fill:none" points="
  234.125,99.3926 253.023,99.3926 
  "/>
<path clip-path="url(#clip370)" d="M186.181 1342.99 Q182.57 1342.99 180.741 1346.56 Q178.936 1350.1 178.936 1357.23 Q178.936 1364.34 180.741 1367.9 Q182.57 1371.44 186.181 1371.44 Q189.815 1371.44 191.621 1367.9 Q193.45 1364.34 193.45 1357.23 Q193.45 1350.1 191.621 1346.56 Q189.815 1342.99 186.181 1342.99 M186.181 1339.29 Q191.991 1339.29 195.047 1343.9 Q198.125 1348.48 198.125 1357.23 Q198.125 1365.96 195.047 1370.56 Q191.991 1375.15 186.181 1375.15 Q180.371 1375.15 177.292 1370.56 Q174.237 1365.96 174.237 1357.23 Q174.237 1348.48 177.292 1343.9 Q180.371 1339.29 186.181 1339.29 Z" fill="#000000" fill-rule="evenodd" fill-opacity="1" /><path clip-path="url(#clip370)" d="M146.066 1025.46 L164.422 1025.46 L164.422 1029.4 L150.348 1029.4 L150.348 1037.87 Q151.366 1037.52 152.385 1037.36 Q153.403 1037.18 154.422 1037.18 Q160.209 1037.18 163.589 1040.35 Q166.968 1043.52 166.968 1048.94 Q166.968 1054.52 163.496 1057.62 Q160.024 1060.7 153.704 1060.7 Q151.528 1060.7 149.26 1060.33 Q147.015 1059.96 144.607 1059.21 L144.607 1054.52 Q146.691 1055.65 148.913 1056.21 Q151.135 1056.76 153.612 1056.76 Q157.616 1056.76 159.954 1054.65 Q162.292 1052.55 162.292 1048.94 Q162.292 1045.33 159.954 1043.22 Q157.616 1041.11 153.612 1041.11 Q151.737 1041.11 149.862 1041.53 Q148.01 1041.95 146.066 1042.83 L146.066 1025.46 Z" fill="#000000" fill-rule="evenodd" fill-opacity="1" /><path clip-path="url(#clip370)" d="M186.181 1028.54 Q182.57 1028.54 180.741 1032.11 Q178.936 1035.65 178.936 1042.78 Q178.936 1049.89 180.741 1053.45 Q182.57 1056.99 186.181 1056.99 Q189.815 1056.99 191.621 1053.45 Q193.45 1049.89 193.45 1042.78 Q193.45 1035.65 191.621 1032.11 Q189.815 1028.54 186.181 1028.54 M186.181 1024.84 Q191.991 1024.84 195.047 1029.45 Q198.125 1034.03 198.125 1042.78 Q198.125 1051.51 195.047 1056.11 Q191.991 1060.7 186.181 1060.7 Q180.371 1060.7 177.292 1056.11 Q174.237 1051.51 174.237 1042.78 Q174.237 1034.03 177.292 1029.45 Q180.371 1024.84 186.181 1024.84 Z" fill="#000000" fill-rule="evenodd" fill-opacity="1" /><path clip-path="url(#clip370)" d="M116.668 741.639 L124.306 741.639 L124.306 715.273 L115.996 716.94 L115.996 712.681 L124.26 711.014 L128.936 711.014 L128.936 741.639 L136.575 741.639 L136.575 745.574 L116.668 745.574 L116.668 741.639 Z" fill="#000000" fill-rule="evenodd" fill-opacity="1" /><path clip-path="url(#clip370)" d="M156.019 714.093 Q152.408 714.093 150.579 717.658 Q148.774 721.199 148.774 728.329 Q148.774 735.435 150.579 739 Q152.408 742.542 156.019 742.542 Q159.653 742.542 161.459 739 Q163.288 735.435 163.288 728.329 Q163.288 721.199 161.459 717.658 Q159.653 714.093 156.019 714.093 M156.019 710.389 Q161.829 710.389 164.885 714.996 Q167.964 719.579 167.964 728.329 Q167.964 737.056 164.885 741.662 Q161.829 746.245 156.019 746.245 Q150.209 746.245 147.13 741.662 Q144.075 737.056 144.075 728.329 Q144.075 719.579 147.13 714.996 Q150.209 710.389 156.019 710.389 Z" fill="#000000" fill-rule="evenodd" fill-opacity="1" /><path clip-path="url(#clip370)" d="M186.181 714.093 Q182.57 714.093 180.741 717.658 Q178.936 721.199 178.936 728.329 Q178.936 735.435 180.741 739 Q182.57 742.542 186.181 742.542 Q189.815 742.542 191.621 739 Q193.45 735.435 193.45 728.329 Q193.45 721.199 191.621 717.658 Q189.815 714.093 186.181 714.093 M186.181 710.389 Q191.991 710.389 195.047 714.996 Q198.125 719.579 198.125 728.329 Q198.125 737.056 195.047 741.662 Q191.991 746.245 186.181 746.245 Q180.371 746.245 177.292 741.662 Q174.237 737.056 174.237 728.329 Q174.237 719.579 177.292 714.996 Q180.371 710.389 186.181 710.389 Z" fill="#000000" fill-rule="evenodd" fill-opacity="1" /><path clip-path="url(#clip370)" d="M116.668 427.188 L124.306 427.188 L124.306 400.823 L115.996 402.489 L115.996 398.23 L124.26 396.563 L128.936 396.563 L128.936 427.188 L136.575 427.188 L136.575 431.123 L116.668 431.123 L116.668 427.188 Z" fill="#000000" fill-rule="evenodd" fill-opacity="1" /><path clip-path="url(#clip370)" d="M146.066 396.563 L164.422 396.563 L164.422 400.498 L150.348 400.498 L150.348 408.971 Q151.366 408.623 152.385 408.461 Q153.403 408.276 154.422 408.276 Q160.209 408.276 163.589 411.448 Q166.968 414.619 166.968 420.035 Q166.968 425.614 163.496 428.716 Q160.024 431.795 153.704 431.795 Q151.528 431.795 149.26 431.424 Q147.015 431.054 144.607 430.313 L144.607 425.614 Q146.691 426.748 148.913 427.304 Q151.135 427.859 153.612 427.859 Q157.616 427.859 159.954 425.753 Q162.292 423.647 162.292 420.035 Q162.292 416.424 159.954 414.318 Q157.616 412.211 153.612 412.211 Q151.737 412.211 149.862 412.628 Q148.01 413.045 146.066 413.924 L146.066 396.563 Z" fill="#000000" fill-rule="evenodd" fill-opacity="1" /><path clip-path="url(#clip370)" d="M186.181 399.642 Q182.57 399.642 180.741 403.207 Q178.936 406.748 178.936 413.878 Q178.936 420.984 180.741 424.549 Q182.57 428.091 186.181 428.091 Q189.815 428.091 191.621 424.549 Q193.45 420.984 193.45 413.878 Q193.45 406.748 191.621 403.207 Q189.815 399.642 186.181 399.642 M186.181 395.938 Q191.991 395.938 195.047 400.545 Q198.125 405.128 198.125 413.878 Q198.125 422.605 195.047 427.211 Q191.991 431.795 186.181 431.795 Q180.371 431.795 177.292 427.211 Q174.237 422.605 174.237 413.878 Q174.237 405.128 177.292 400.545 Q180.371 395.938 186.181 395.938 Z" fill="#000000" fill-rule="evenodd" fill-opacity="1" /><path clip-path="url(#clip370)" d="M119.885 112.737 L136.204 112.737 L136.204 116.673 L114.26 116.673 L114.26 112.737 Q116.922 109.983 121.505 105.353 Q126.112 100.7 127.292 99.3579 Q129.538 96.8347 130.417 95.0986 Q131.32 93.3394 131.32 91.6496 Q131.32 88.895 129.376 87.1589 Q127.455 85.4228 124.353 85.4228 Q122.154 85.4228 119.7 86.1867 Q117.269 86.9505 114.492 88.5015 L114.492 83.7793 Q117.316 82.645 119.769 82.0663 Q122.223 81.4876 124.26 81.4876 Q129.63 81.4876 132.825 84.1728 Q136.019 86.8579 136.019 91.3487 Q136.019 93.4783 135.209 95.3996 Q134.422 97.2977 132.316 99.8903 Q131.737 100.562 128.635 103.779 Q125.533 106.974 119.885 112.737 Z" fill="#000000" fill-rule="evenodd" fill-opacity="1" /><path clip-path="url(#clip370)" d="M156.019 85.1913 Q152.408 85.1913 150.579 88.7561 Q148.774 92.2977 148.774 99.4273 Q148.774 106.534 150.579 110.099 Q152.408 113.64 156.019 113.64 Q159.653 113.64 161.459 110.099 Q163.288 106.534 163.288 99.4273 Q163.288 92.2977 161.459 88.7561 Q159.653 85.1913 156.019 85.1913 M156.019 81.4876 Q161.829 81.4876 164.885 86.0941 Q167.964 90.6774 167.964 99.4273 Q167.964 108.154 164.885 112.761 Q161.829 117.344 156.019 117.344 Q150.209 117.344 147.13 112.761 Q144.075 108.154 144.075 99.4273 Q144.075 90.6774 147.13 86.0941 Q150.209 81.4876 156.019 81.4876 Z" fill="#000000" fill-rule="evenodd" fill-opacity="1" /><path clip-path="url(#clip370)" d="M186.181 85.1913 Q182.57 85.1913 180.741 88.7561 Q178.936 92.2977 178.936 99.4273 Q178.936 106.534 180.741 110.099 Q182.57 113.64 186.181 113.64 Q189.815 113.64 191.621 110.099 Q193.45 106.534 193.45 99.4273 Q193.45 92.2977 191.621 88.7561 Q189.815 85.1913 186.181 85.1913 M186.181 81.4876 Q191.991 81.4876 195.047 86.0941 Q198.125 90.6774 198.125 99.4273 Q198.125 108.154 195.047 112.761 Q191.991 117.344 186.181 117.344 Q180.371 117.344 177.292 112.761 Q174.237 108.154 174.237 99.4273 Q174.237 90.6774 177.292 86.0941 Q180.371 81.4876 186.181 81.4876 Z" fill="#000000" fill-rule="evenodd" fill-opacity="1" /><path clip-path="url(#clip370)" d="M33.7671 914.088 L14.479 914.088 L14.479 908.232 L64.0042 908.232 L64.0042 914.088 L58.657 914.088 Q61.8398 915.934 63.3994 918.767 Q64.9272 921.568 64.9272 925.515 Q64.9272 931.976 59.771 936.05 Q54.6147 940.092 46.212 940.092 Q37.8093 940.092 32.6531 936.05 Q27.4968 931.976 27.4968 925.515 Q27.4968 921.568 29.0564 918.767 Q30.5842 915.934 33.7671 914.088 M46.212 934.045 Q52.6732 934.045 56.3653 931.403 Q60.0256 928.729 60.0256 924.082 Q60.0256 919.436 56.3653 916.762 Q52.6732 914.088 46.212 914.088 Q39.7508 914.088 36.0905 916.762 Q32.3984 919.436 32.3984 924.082 Q32.3984 928.729 36.0905 931.403 Q39.7508 934.045 46.212 934.045 Z" fill="#000000" fill-rule="evenodd" fill-opacity="1" /><path clip-path="url(#clip370)" d="M28.3562 896.169 L28.3562 890.312 L64.0042 890.312 L64.0042 896.169 L28.3562 896.169 M14.479 896.169 L14.479 890.312 L21.895 890.312 L21.895 896.169 L14.479 896.169 Z" fill="#000000" fill-rule="evenodd" fill-opacity="1" /><path clip-path="url(#clip370)" d="M29.4065 855.333 L34.9447 855.333 Q33.6716 857.815 33.035 860.489 Q32.3984 863.163 32.3984 866.027 Q32.3984 870.388 33.7352 872.584 Q35.072 874.748 37.7456 874.748 Q39.7826 874.748 40.9603 873.189 Q42.1061 871.629 43.1565 866.918 L43.6021 864.913 Q44.9389 858.675 47.3897 856.065 Q49.8086 853.423 54.1691 853.423 Q59.1344 853.423 62.0308 857.37 Q64.9272 861.285 64.9272 868.16 Q64.9272 871.024 64.3543 874.144 Q63.8132 877.231 62.6992 880.668 L56.6518 880.668 Q58.3387 877.422 59.198 874.271 Q60.0256 871.12 60.0256 868.032 Q60.0256 863.895 58.6251 861.667 Q57.1929 859.439 54.6147 859.439 Q52.2276 859.439 50.9545 861.062 Q49.6813 862.653 48.5037 868.096 L48.0262 870.133 Q46.8804 875.576 44.5251 877.995 Q42.138 880.414 38.0002 880.414 Q32.9713 880.414 30.2341 876.849 Q27.4968 873.284 27.4968 866.727 Q27.4968 863.481 27.9743 860.616 Q28.4517 857.752 29.4065 855.333 Z" fill="#000000" fill-rule="evenodd" fill-opacity="1" /><path clip-path="url(#clip370)" d="M18.2347 838.305 L28.3562 838.305 L28.3562 826.242 L32.9077 826.242 L32.9077 838.305 L52.2594 838.305 Q56.6199 838.305 57.8613 837.127 Q59.1026 835.917 59.1026 832.257 L59.1026 826.242 L64.0042 826.242 L64.0042 832.257 Q64.0042 839.037 61.4897 841.615 Q58.9434 844.193 52.2594 844.193 L32.9077 844.193 L32.9077 848.49 L28.3562 848.49 L28.3562 844.193 L18.2347 844.193 L18.2347 838.305 Z" fill="#000000" fill-rule="evenodd" fill-opacity="1" /><path clip-path="url(#clip370)" d="M46.0847 802.338 Q46.0847 809.436 47.7079 812.173 Q49.3312 814.911 53.2461 814.911 Q56.3653 814.911 58.2114 812.874 Q60.0256 810.805 60.0256 807.272 Q60.0256 802.402 56.5881 799.474 Q53.1188 796.514 47.3897 796.514 L46.0847 796.514 L46.0847 802.338 M43.6657 790.657 L64.0042 790.657 L64.0042 796.514 L58.5933 796.514 Q61.8398 798.519 63.3994 801.511 Q64.9272 804.503 64.9272 808.831 Q64.9272 814.306 61.8716 817.552 Q58.7843 820.767 53.6281 820.767 Q47.6125 820.767 44.5569 816.757 Q41.5014 812.714 41.5014 804.725 L41.5014 796.514 L40.9285 796.514 Q36.8862 796.514 34.6901 799.187 Q32.4621 801.829 32.4621 806.635 Q32.4621 809.691 33.1941 812.587 Q33.9262 815.484 35.3903 818.157 L29.9795 818.157 Q28.7381 814.942 28.1334 811.919 Q27.4968 808.895 27.4968 806.03 Q27.4968 798.296 31.5072 794.477 Q35.5176 790.657 43.6657 790.657 Z" fill="#000000" fill-rule="evenodd" fill-opacity="1" /><path clip-path="url(#clip370)" d="M42.4881 748.962 L64.0042 748.962 L64.0042 754.818 L42.679 754.818 Q37.6183 754.818 35.1038 756.792 Q32.5894 758.765 32.5894 762.712 Q32.5894 767.454 35.6131 770.192 Q38.6368 772.929 43.8567 772.929 L64.0042 772.929 L64.0042 778.817 L28.3562 778.817 L28.3562 772.929 L33.8944 772.929 Q30.6797 770.828 29.0883 767.995 Q27.4968 765.131 27.4968 761.407 Q27.4968 755.264 31.3163 752.113 Q35.1038 748.962 42.4881 748.962 Z" fill="#000000" fill-rule="evenodd" fill-opacity="1" /><path clip-path="url(#clip370)" d="M29.7248 711.627 L35.1993 711.627 Q33.8307 714.11 33.1623 716.624 Q32.4621 719.107 32.4621 721.653 Q32.4621 727.35 36.0905 730.501 Q39.6872 733.652 46.212 733.652 Q52.7369 733.652 56.3653 730.501 Q59.9619 727.35 59.9619 721.653 Q59.9619 719.107 59.2935 716.624 Q58.5933 714.11 57.2247 711.627 L62.6355 711.627 Q63.7814 714.078 64.3543 716.72 Q64.9272 719.33 64.9272 722.29 Q64.9272 730.342 59.8664 735.085 Q54.8057 739.827 46.212 739.827 Q37.491 739.827 32.4939 735.053 Q27.4968 730.247 27.4968 721.908 Q27.4968 719.202 28.0697 716.624 Q28.6108 714.046 29.7248 711.627 Z" fill="#000000" fill-rule="evenodd" fill-opacity="1" /><path clip-path="url(#clip370)" d="M44.7161 670.95 L47.5806 670.95 L47.5806 697.877 Q53.6281 697.495 56.8109 694.249 Q59.9619 690.97 59.9619 685.146 Q59.9619 681.772 59.1344 678.621 Q58.3069 675.438 56.6518 672.319 L62.1899 672.319 Q63.5267 675.47 64.227 678.78 Q64.9272 682.09 64.9272 685.496 Q64.9272 694.026 59.9619 699.023 Q54.9967 703.988 46.5303 703.988 Q37.7774 703.988 32.6531 699.278 Q27.4968 694.535 27.4968 686.514 Q27.4968 679.321 32.1438 675.152 Q36.7589 670.95 44.7161 670.95 M42.9973 676.807 Q38.1912 676.87 35.3266 679.512 Q32.4621 682.122 32.4621 686.451 Q32.4621 691.352 35.2312 694.312 Q38.0002 697.241 43.0292 697.686 L42.9973 676.807 Z" fill="#000000" fill-rule="evenodd" fill-opacity="1" /><path clip-path="url(#clip370)" d="M55.9197 659.842 L55.9197 653.126 L61.3942 653.126 L71.5793 658.346 L71.5793 662.452 L61.3942 659.842 L55.9197 659.842 Z" fill="#000000" fill-rule="evenodd" fill-opacity="1" /><path clip-path="url(#clip370)" d="M14.479 620.12 L14.479 614.232 L43.7294 614.232 L28.3562 596.758 L28.3562 589.278 L45.0344 608.184 L64.0042 588.482 L64.0042 596.121 L46.5939 614.232 L64.0042 614.232 L64.0042 620.12 L14.479 620.12 Z" fill="#000000" fill-rule="evenodd" fill-opacity="1" /><path clip-path="url(#clip370)" d="M35.1993 554.394 Q31.2526 552.198 29.3747 549.142 Q27.4968 546.087 27.4968 541.949 Q27.4968 536.379 31.4117 533.355 Q35.2948 530.332 42.4881 530.332 L64.0042 530.332 L64.0042 536.22 L42.679 536.22 Q37.5546 536.22 35.072 538.034 Q32.5894 539.848 32.5894 543.572 Q32.5894 548.124 35.6131 550.766 Q38.6368 553.407 43.8567 553.407 L64.0042 553.407 L64.0042 559.296 L42.679 559.296 Q37.5228 559.296 35.072 561.11 Q32.5894 562.924 32.5894 566.712 Q32.5894 571.2 35.6449 573.841 Q38.6686 576.483 43.8567 576.483 L64.0042 576.483 L64.0042 582.371 L28.3562 582.371 L28.3562 576.483 L33.8944 576.483 Q30.616 574.478 29.0564 571.677 Q27.4968 568.876 27.4968 565.025 Q27.4968 561.142 29.4702 558.436 Q31.4436 555.699 35.1993 554.394 Z" fill="#000000" fill-rule="evenodd" fill-opacity="1" /><polyline clip-path="url(#clip372)" style="stroke:#009af9; stroke-linecap:round; stroke-linejoin:round; stroke-width:4; stroke-opacity:1; fill:none" points="
  294.087,1357.2 306.657,1330.15 319.228,1303.11 331.798,1276.07 344.369,1249.02 356.939,1221.98 369.51,1194.94 382.08,1167.9 394.651,1140.85 407.221,1113.81 
  419.792,1086.77 432.362,1059.73 444.933,1032.68 457.503,1005.64 470.074,978.597 482.644,951.554 495.215,924.511 507.785,897.469 520.356,870.426 532.926,843.383 
  545.496,816.34 558.067,789.297 570.637,762.255 583.208,735.212 595.778,708.169 608.349,681.126 620.919,654.084 633.49,627.041 646.06,599.998 658.631,572.955 
  671.201,545.913 683.772,518.87 696.342,491.827 708.913,464.784 721.483,437.742 734.054,410.699 746.624,383.656 759.195,356.613 771.765,329.571 784.336,302.528 
  796.906,275.485 809.477,248.442 822.047,221.399 834.618,194.357 847.188,167.314 859.759,140.271 872.329,113.228 884.9,86.1857 897.47,113.228 910.041,140.271 
  922.611,167.314 935.182,194.357 947.752,221.399 960.323,248.442 972.893,275.485 985.464,302.528 998.034,329.571 1010.6,356.613 1023.18,383.656 1035.75,410.699 
  1048.32,437.742 1060.89,464.784 1073.46,491.827 1086.03,518.87 1098.6,545.913 1111.17,572.955 1123.74,599.998 1136.31,627.041 1148.88,654.084 1161.45,681.126 
  1174.02,708.169 1186.59,735.212 1199.16,762.255 1211.73,789.297 1224.3,816.34 1236.87,843.383 1249.44,870.426 1262.01,897.469 1274.58,924.511 1287.16,951.554 
  1299.73,978.597 1312.3,1005.64 1324.87,1032.68 1337.44,1059.73 1350.01,1086.77 1362.58,1113.81 1375.15,1140.85 1387.72,1167.9 1400.29,1194.94 1412.86,1221.98 
  1425.43,1249.02 1438,1276.07 1450.57,1303.11 1463.14,1330.15 1475.71,1357.2 1488.28,1384.24 1500.85,1357.2 1513.42,1330.15 1525.99,1303.11 1538.57,1276.07 
  1551.14,1249.02 1563.71,1221.98 1576.28,1194.94 1588.85,1167.9 1601.42,1140.85 1613.99,1113.81 1626.56,1086.77 1639.13,1059.73 1651.7,1032.68 1664.27,1005.64 
  1676.84,978.597 1689.41,951.554 1701.98,924.511 1714.55,897.469 1727.12,870.426 1739.69,843.383 1752.26,816.34 1764.83,789.297 1777.4,762.255 1789.98,735.212 
  1802.55,708.169 1815.12,681.126 1827.69,654.084 1840.26,627.041 1852.83,599.998 1865.4,572.955 1877.97,545.913 1890.54,518.87 1903.11,491.827 1915.68,464.784 
  1928.25,437.742 1940.82,410.699 1953.39,383.656 1965.96,356.613 1978.53,329.571 1991.1,302.528 2003.67,275.485 2016.24,248.442 2028.81,221.399 2041.38,194.357 
  2053.96,167.314 2066.53,140.271 2079.1,113.228 2091.67,86.1857 2104.24,113.228 2116.81,140.271 2129.38,167.314 2141.95,194.357 2154.52,221.399 2167.09,248.442 
  2179.66,275.485 2192.23,302.528 2204.8,329.571 2217.37,356.613 2229.94,383.656 2242.51,410.699 2255.08,437.742 2267.65,464.784 2280.22,491.827 2292.79,518.87 
  
  "/>
</svg>
