<?xml version="1.0" encoding="utf-8"?>
<svg xmlns="http://www.w3.org/2000/svg" xmlns:xlink="http://www.w3.org/1999/xlink" width="600" height="400" viewBox="0 0 2400 1600">
<defs>
  <clipPath id="clip730">
    <rect x="0" y="0" width="2400" height="1600"/>
  </clipPath>
</defs>
<path clip-path="url(#clip730)" d="M0 1600 L2400 1600 L2400 0 L0 0  Z" fill="#ffffff" fill-rule="evenodd" fill-opacity="1"/>
<defs>
  <clipPath id="clip731">
    <rect x="480" y="0" width="1681" height="1600"/>
  </clipPath>
</defs>
<path clip-path="url(#clip730)" d="M234.125 1423.18 L2352.76 1423.18 L2352.76 47.2441 L234.125 47.2441  Z" fill="#ffffff" fill-rule="evenodd" fill-opacity="1"/>
<defs>
  <clipPath id="clip732">
    <rect x="234" y="47" width="2120" height="1377"/>
  </clipPath>
</defs>
<polyline clip-path="url(#clip732)" style="stroke:#000000; stroke-linecap:round; stroke-linejoin:round; stroke-width:2; stroke-opacity:0.1; fill:none" points="294.087,1423.18 294.087,47.2441 "/>
<polyline clip-path="url(#clip732)" style="stroke:#000000; stroke-linecap:round; stroke-linejoin:round; stroke-width:2; stroke-opacity:0.1; fill:none" points="922.611,1423.18 922.611,47.2441 "/>
<polyline clip-path="url(#clip732)" style="stroke:#000000; stroke-linecap:round; stroke-linejoin:round; stroke-width:2; stroke-opacity:0.1; fill:none" points="1551.14,1423.18 1551.14,47.2441 "/>
<polyline clip-path="url(#clip732)" style="stroke:#000000; stroke-linecap:round; stroke-linejoin:round; stroke-width:2; stroke-opacity:0.1; fill:none" points="2179.66,1423.18 2179.66,47.2441 "/>
<polyline clip-path="url(#clip730)" style="stroke:#000000; stroke-linecap:round; stroke-linejoin:round; stroke-width:4; stroke-opacity:1; fill:none" points="234.125,1423.18 2352.76,1423.18 "/>
<polyline clip-path="url(#clip730)" style="stroke:#000000; stroke-linecap:round; stroke-linejoin:round; stroke-width:4; stroke-opacity:1; fill:none" points="234.125,47.2441 2352.76,47.2441 "/>
<polyline clip-path="url(#clip730)" style="stroke:#000000; stroke-linecap:round; stroke-linejoin:round; stroke-width:4; stroke-opacity:1; fill:none" points="294.087,1423.18 294.087,1404.28 "/>
<polyline clip-path="url(#clip730)" style="stroke:#000000; stroke-linecap:round; stroke-linejoin:round; stroke-width:4; stroke-opacity:1; fill:none" points="922.611,1423.18 922.611,1404.28 "/>
<polyline clip-path="url(#clip730)" style="stroke:#000000; stroke-linecap:round; stroke-linejoin:round; stroke-width:4; stroke-opacity:1; fill:none" points="1551.14,1423.18 1551.14,1404.28 "/>
<polyline clip-path="url(#clip730)" style="stroke:#000000; stroke-linecap:round; stroke-linejoin:round; stroke-width:4; stroke-opacity:1; fill:none" points="2179.66,1423.18 2179.66,1404.28 "/>
<path clip-path="url(#clip730)" d="M294.087 1454.1 Q290.476 1454.1 288.647 1457.66 Q286.841 1461.2 286.841 1468.33 Q286.841 1475.44 288.647 1479.01 Q290.476 1482.55 294.087 1482.55 Q297.721 1482.55 299.526 1479.01 Q301.355 1475.44 301.355 1468.33 Q301.355 1461.2 299.526 1457.66 Q297.721 1454.1 294.087 1454.1 M294.087 1450.39 Q299.897 1450.39 302.952 1455 Q306.031 1459.58 306.031 1468.33 Q306.031 1477.06 302.952 1481.67 Q299.897 1486.25 294.087 1486.25 Q288.277 1486.25 285.198 1481.67 Q282.142 1477.06 282.142 1468.33 Q282.142 1459.58 285.198 1455 Q288.277 1450.39 294.087 1450.39 Z" fill="#000000" fill-rule="nonzero" fill-opacity="1" /><path clip-path="url(#clip730)" d="M912.889 1451.02 L931.245 1451.02 L931.245 1454.96 L917.171 1454.96 L917.171 1463.43 Q918.19 1463.08 919.208 1462.92 Q920.227 1462.73 921.245 1462.73 Q927.032 1462.73 930.412 1465.9 Q933.792 1469.08 933.792 1474.49 Q933.792 1480.07 930.32 1483.17 Q926.847 1486.25 920.528 1486.25 Q918.352 1486.25 916.083 1485.88 Q913.838 1485.51 911.431 1484.77 L911.431 1480.07 Q913.514 1481.2 915.736 1481.76 Q917.958 1482.32 920.435 1482.32 Q924.44 1482.32 926.778 1480.21 Q929.116 1478.1 929.116 1474.49 Q929.116 1470.88 926.778 1468.77 Q924.44 1466.67 920.435 1466.67 Q918.56 1466.67 916.685 1467.08 Q914.833 1467.5 912.889 1468.38 L912.889 1451.02 Z" fill="#000000" fill-rule="nonzero" fill-opacity="1" /><path clip-path="url(#clip730)" d="M1525.82 1481.64 L1533.46 1481.64 L1533.46 1455.28 L1525.15 1456.95 L1525.15 1452.69 L1533.42 1451.02 L1538.09 1451.02 L1538.09 1481.64 L1545.73 1481.64 L1545.73 1485.58 L1525.82 1485.58 L1525.82 1481.64 Z" fill="#000000" fill-rule="nonzero" fill-opacity="1" /><path clip-path="url(#clip730)" d="M1565.18 1454.1 Q1561.56 1454.1 1559.74 1457.66 Q1557.93 1461.2 1557.93 1468.33 Q1557.93 1475.44 1559.74 1479.01 Q1561.56 1482.55 1565.18 1482.55 Q1568.81 1482.55 1570.61 1479.01 Q1572.44 1475.44 1572.44 1468.33 Q1572.44 1461.2 1570.61 1457.66 Q1568.81 1454.1 1565.18 1454.1 M1565.18 1450.39 Q1570.99 1450.39 1574.04 1455 Q1577.12 1459.58 1577.12 1468.33 Q1577.12 1477.06 1574.04 1481.67 Q1570.99 1486.25 1565.18 1486.25 Q1559.36 1486.25 1556.29 1481.67 Q1553.23 1477.06 1553.23 1468.33 Q1553.23 1459.58 1556.29 1455 Q1559.36 1450.39 1565.18 1450.39 Z" fill="#000000" fill-rule="nonzero" fill-opacity="1" /><path clip-path="url(#clip730)" d="M2154.85 1481.64 L2162.48 1481.64 L2162.48 1455.28 L2154.17 1456.95 L2154.17 1452.69 L2162.44 1451.02 L2167.11 1451.02 L2167.11 1481.64 L2174.75 1481.64 L2174.75 1485.58 L2154.85 1485.58 L2154.85 1481.64 Z" fill="#000000" fill-rule="nonzero" fill-opacity="1" /><path clip-path="url(#clip730)" d="M2184.24 1451.02 L2202.6 1451.02 L2202.6 1454.96 L2188.53 1454.96 L2188.53 1463.43 Q2189.54 1463.08 2190.56 1462.92 Q2191.58 1462.73 2192.6 1462.73 Q2198.39 1462.73 2201.77 1465.9 Q2205.15 1469.08 2205.15 1474.49 Q2205.15 1480.07 2201.67 1483.17 Q2198.2 1486.25 2191.88 1486.25 Q2189.71 1486.25 2187.44 1485.88 Q2185.19 1485.51 2182.79 1484.77 L2182.79 1480.07 Q2184.87 1481.2 2187.09 1481.76 Q2189.31 1482.32 2191.79 1482.32 Q2195.79 1482.32 2198.13 1480.21 Q2200.47 1478.1 2200.47 1474.49 Q2200.47 1470.88 2198.13 1468.77 Q2195.79 1466.67 2191.79 1466.67 Q2189.91 1466.67 2188.04 1467.08 Q2186.19 1467.5 2184.24 1468.38 L2184.24 1451.02 Z" fill="#000000" fill-rule="nonzero" fill-opacity="1" /><path clip-path="url(#clip730)" d="M1160.7 1522.27 L1160.7 1532.4 L1172.76 1532.4 L1172.76 1536.95 L1160.7 1536.95 L1160.7 1556.3 Q1160.7 1560.66 1161.88 1561.9 Q1163.09 1563.14 1166.75 1563.14 L1172.76 1563.14 L1172.76 1568.04 L1166.75 1568.04 Q1159.97 1568.04 1157.39 1565.53 Q1154.81 1562.98 1154.81 1556.3 L1154.81 1536.95 L1150.51 1536.95 L1150.51 1532.4 L1154.81 1532.4 L1154.81 1522.27 L1160.7 1522.27 Z" fill="#000000" fill-rule="nonzero" fill-opacity="1" /><path clip-path="url(#clip730)" d="M1180.47 1532.4 L1186.32 1532.4 L1186.32 1568.04 L1180.47 1568.04 L1180.47 1532.4 M1180.47 1518.52 L1186.32 1518.52 L1186.32 1525.93 L1180.47 1525.93 L1180.47 1518.52 Z" fill="#000000" fill-rule="nonzero" fill-opacity="1" /><path clip-path="url(#clip730)" d="M1226.33 1539.24 Q1228.53 1535.29 1231.58 1533.41 Q1234.64 1531.54 1238.78 1531.54 Q1244.35 1531.54 1247.37 1535.45 Q1250.39 1539.33 1250.39 1546.53 L1250.39 1568.04 L1244.5 1568.04 L1244.5 1546.72 Q1244.5 1541.59 1242.69 1539.11 Q1240.88 1536.63 1237.15 1536.63 Q1232.6 1536.63 1229.96 1539.65 Q1227.32 1542.68 1227.32 1547.9 L1227.32 1568.04 L1221.43 1568.04 L1221.43 1546.72 Q1221.43 1541.56 1219.61 1539.11 Q1217.8 1536.63 1214.01 1536.63 Q1209.52 1536.63 1206.88 1539.68 Q1204.24 1542.71 1204.24 1547.9 L1204.24 1568.04 L1198.35 1568.04 L1198.35 1532.4 L1204.24 1532.4 L1204.24 1537.93 Q1206.25 1534.66 1209.05 1533.1 Q1211.85 1531.54 1215.7 1531.54 Q1219.58 1531.54 1222.29 1533.51 Q1225.03 1535.48 1226.33 1539.24 Z" fill="#000000" fill-rule="nonzero" fill-opacity="1" /><path clip-path="url(#clip730)" d="M1292.57 1548.76 L1292.57 1551.62 L1265.64 1551.62 Q1266.02 1557.67 1269.27 1560.85 Q1272.55 1564 1278.37 1564 Q1281.74 1564 1284.89 1563.17 Q1288.08 1562.35 1291.2 1560.69 L1291.2 1566.23 Q1288.05 1567.57 1284.74 1568.27 Q1281.43 1568.97 1278.02 1568.97 Q1269.49 1568.97 1264.49 1564 Q1259.53 1559.04 1259.53 1550.57 Q1259.53 1541.82 1264.24 1536.69 Q1268.98 1531.54 1277 1531.54 Q1284.19 1531.54 1288.36 1536.18 Q1292.57 1540.8 1292.57 1548.76 M1286.71 1547.04 Q1286.65 1542.23 1284 1539.37 Q1281.39 1536.5 1277.06 1536.5 Q1272.16 1536.5 1269.2 1539.27 Q1266.28 1542.04 1265.83 1547.07 L1286.71 1547.04 Z" fill="#000000" fill-rule="nonzero" fill-opacity="1" /><path clip-path="url(#clip730)" d="M1303.67 1559.96 L1310.39 1559.96 L1310.39 1565.43 L1305.17 1575.62 L1301.06 1575.62 L1303.67 1565.43 L1303.67 1559.96 Z" fill="#000000" fill-rule="nonzero" fill-opacity="1" /><path clip-path="url(#clip730)" d="M1373.25 1546.53 L1373.25 1568.04 L1367.39 1568.04 L1367.39 1546.72 Q1367.39 1541.66 1365.42 1539.14 Q1363.45 1536.63 1359.5 1536.63 Q1354.76 1536.63 1352.02 1539.65 Q1349.28 1542.68 1349.28 1547.9 L1349.28 1568.04 L1343.4 1568.04 L1343.4 1518.52 L1349.28 1518.52 L1349.28 1537.93 Q1351.38 1534.72 1354.22 1533.13 Q1357.08 1531.54 1360.81 1531.54 Q1366.95 1531.54 1370.1 1535.36 Q1373.25 1539.14 1373.25 1546.53 Z" fill="#000000" fill-rule="nonzero" fill-opacity="1" /><path clip-path="url(#clip730)" d="M1405.59 1537.87 Q1404.6 1537.3 1403.42 1537.04 Q1402.28 1536.76 1400.88 1536.76 Q1395.91 1536.76 1393.24 1540 Q1390.6 1543.22 1390.6 1549.27 L1390.6 1568.04 L1384.71 1568.04 L1384.71 1532.4 L1390.6 1532.4 L1390.6 1537.93 Q1392.44 1534.69 1395.4 1533.13 Q1398.36 1531.54 1402.6 1531.54 Q1403.2 1531.54 1403.93 1531.63 Q1404.67 1531.7 1405.56 1531.85 L1405.59 1537.87 Z" fill="#000000" fill-rule="nonzero" fill-opacity="1" /><path clip-path="url(#clip730)" d="M1434.46 1533.45 L1434.46 1538.98 Q1431.97 1537.71 1429.3 1537.07 Q1426.63 1536.44 1423.76 1536.44 Q1419.4 1536.44 1417.21 1537.77 Q1415.04 1539.11 1415.04 1541.79 Q1415.04 1543.82 1416.6 1545 Q1418.16 1546.15 1422.87 1547.2 L1424.88 1547.64 Q1431.11 1548.98 1433.72 1551.43 Q1436.37 1553.85 1436.37 1558.21 Q1436.37 1563.17 1432.42 1566.07 Q1428.51 1568.97 1421.63 1568.97 Q1418.77 1568.97 1415.65 1568.39 Q1412.56 1567.85 1409.12 1566.74 L1409.12 1560.69 Q1412.37 1562.38 1415.52 1563.24 Q1418.67 1564.07 1421.76 1564.07 Q1425.9 1564.07 1428.12 1562.66 Q1430.35 1561.23 1430.35 1558.65 Q1430.35 1556.27 1428.73 1554.99 Q1427.14 1553.72 1421.69 1552.54 L1419.66 1552.07 Q1414.21 1550.92 1411.8 1548.56 Q1409.38 1546.18 1409.38 1542.04 Q1409.38 1537.01 1412.94 1534.27 Q1416.51 1531.54 1423.06 1531.54 Q1426.31 1531.54 1429.17 1532.01 Q1432.04 1532.49 1434.46 1533.45 Z" fill="#000000" fill-rule="nonzero" fill-opacity="1" /><polyline clip-path="url(#clip732)" style="stroke:#000000; stroke-linecap:round; stroke-linejoin:round; stroke-width:2; stroke-opacity:0.1; fill:none" points="234.125,1315.92 2352.76,1315.92 "/>
<polyline clip-path="url(#clip732)" style="stroke:#000000; stroke-linecap:round; stroke-linejoin:round; stroke-width:2; stroke-opacity:0.1; fill:none" points="234.125,1013.63 2352.76,1013.63 "/>
<polyline clip-path="url(#clip732)" style="stroke:#000000; stroke-linecap:round; stroke-linejoin:round; stroke-width:2; stroke-opacity:0.1; fill:none" points="234.125,711.331 2352.76,711.331 "/>
<polyline clip-path="url(#clip732)" style="stroke:#000000; stroke-linecap:round; stroke-linejoin:round; stroke-width:2; stroke-opacity:0.1; fill:none" points="234.125,409.036 2352.76,409.036 "/>
<polyline clip-path="url(#clip732)" style="stroke:#000000; stroke-linecap:round; stroke-linejoin:round; stroke-width:2; stroke-opacity:0.1; fill:none" points="234.125,106.742 2352.76,106.742 "/>
<polyline clip-path="url(#clip730)" style="stroke:#000000; stroke-linecap:round; stroke-linejoin:round; stroke-width:4; stroke-opacity:1; fill:none" points="234.125,1423.18 234.125,47.2441 "/>
<polyline clip-path="url(#clip730)" style="stroke:#000000; stroke-linecap:round; stroke-linejoin:round; stroke-width:4; stroke-opacity:1; fill:none" points="2352.76,1423.18 2352.76,47.2441 "/>
<polyline clip-path="url(#clip730)" style="stroke:#000000; stroke-linecap:round; stroke-linejoin:round; stroke-width:4; stroke-opacity:1; fill:none" points="234.125,1315.92 253.023,1315.92 "/>
<polyline clip-path="url(#clip730)" style="stroke:#000000; stroke-linecap:round; stroke-linejoin:round; stroke-width:4; stroke-opacity:1; fill:none" points="234.125,1013.63 253.023,1013.63 "/>
<polyline clip-path="url(#clip730)" style="stroke:#000000; stroke-linecap:round; stroke-linejoin:round; stroke-width:4; stroke-opacity:1; fill:none" points="234.125,711.331 253.023,711.331 "/>
<polyline clip-path="url(#clip730)" style="stroke:#000000; stroke-linecap:round; stroke-linejoin:round; stroke-width:4; stroke-opacity:1; fill:none" points="234.125,409.036 253.023,409.036 "/>
<polyline clip-path="url(#clip730)" style="stroke:#000000; stroke-linecap:round; stroke-linejoin:round; stroke-width:4; stroke-opacity:1; fill:none" points="234.125,106.742 253.023,106.742 "/>
<path clip-path="url(#clip730)" d="M186.181 1301.72 Q182.57 1301.72 180.741 1305.28 Q178.936 1308.82 178.936 1315.95 Q178.936 1323.06 180.741 1326.63 Q182.57 1330.17 186.181 1330.17 Q189.815 1330.17 191.621 1326.63 Q193.45 1323.06 193.45 1315.95 Q193.45 1308.82 191.621 1305.28 Q189.815 1301.72 186.181 1301.72 M186.181 1298.01 Q191.991 1298.01 195.047 1302.62 Q198.125 1307.2 198.125 1315.95 Q198.125 1324.68 195.047 1329.29 Q191.991 1333.87 186.181 1333.87 Q180.371 1333.87 177.292 1329.29 Q174.237 1324.68 174.237 1315.95 Q174.237 1307.2 177.292 1302.62 Q180.371 1298.01 186.181 1298.01 Z" fill="#000000" fill-rule="nonzero" fill-opacity="1" /><path clip-path="url(#clip730)" d="M146.066 996.345 L164.422 996.345 L164.422 1000.28 L150.348 1000.28 L150.348 1008.75 Q151.366 1008.41 152.385 1008.24 Q153.403 1008.06 154.422 1008.06 Q160.209 1008.06 163.589 1011.23 Q166.968 1014.4 166.968 1019.82 Q166.968 1025.4 163.496 1028.5 Q160.024 1031.58 153.704 1031.58 Q151.528 1031.58 149.26 1031.21 Q147.015 1030.84 144.607 1030.1 L144.607 1025.4 Q146.691 1026.53 148.913 1027.09 Q151.135 1027.64 153.612 1027.64 Q157.616 1027.64 159.954 1025.53 Q162.292 1023.43 162.292 1019.82 Q162.292 1016.21 159.954 1014.1 Q157.616 1011.99 153.612 1011.99 Q151.737 1011.99 149.862 1012.41 Q148.01 1012.83 146.066 1013.71 L146.066 996.345 Z" fill="#000000" fill-rule="nonzero" fill-opacity="1" /><path clip-path="url(#clip730)" d="M186.181 999.424 Q182.57 999.424 180.741 1002.99 Q178.936 1006.53 178.936 1013.66 Q178.936 1020.77 180.741 1024.33 Q182.57 1027.87 186.181 1027.87 Q189.815 1027.87 191.621 1024.33 Q193.45 1020.77 193.45 1013.66 Q193.45 1006.53 191.621 1002.99 Q189.815 999.424 186.181 999.424 M186.181 995.72 Q191.991 995.72 195.047 1000.33 Q198.125 1004.91 198.125 1013.66 Q198.125 1022.39 195.047 1026.99 Q191.991 1031.58 186.181 1031.58 Q180.371 1031.58 177.292 1026.99 Q174.237 1022.39 174.237 1013.66 Q174.237 1004.91 177.292 1000.33 Q180.371 995.72 186.181 995.72 Z" fill="#000000" fill-rule="nonzero" fill-opacity="1" /><path clip-path="url(#clip730)" d="M116.668 724.676 L124.306 724.676 L124.306 698.31 L115.996 699.977 L115.996 695.717 L124.26 694.051 L128.936 694.051 L128.936 724.676 L136.575 724.676 L136.575 728.611 L116.668 728.611 L116.668 724.676 Z" fill="#000000" fill-rule="nonzero" fill-opacity="1" /><path clip-path="url(#clip730)" d="M156.019 697.129 Q152.408 697.129 150.579 700.694 Q148.774 704.236 148.774 711.365 Q148.774 718.472 150.579 722.037 Q152.408 725.578 156.019 725.578 Q159.653 725.578 161.459 722.037 Q163.288 718.472 163.288 711.365 Q163.288 704.236 161.459 700.694 Q159.653 697.129 156.019 697.129 M156.019 693.426 Q161.829 693.426 164.885 698.032 Q167.964 702.615 167.964 711.365 Q167.964 720.092 164.885 724.699 Q161.829 729.282 156.019 729.282 Q150.209 729.282 147.13 724.699 Q144.075 720.092 144.075 711.365 Q144.075 702.615 147.13 698.032 Q150.209 693.426 156.019 693.426 Z" fill="#000000" fill-rule="nonzero" fill-opacity="1" /><path clip-path="url(#clip730)" d="M186.181 697.129 Q182.57 697.129 180.741 700.694 Q178.936 704.236 178.936 711.365 Q178.936 718.472 180.741 722.037 Q182.57 725.578 186.181 725.578 Q189.815 725.578 191.621 722.037 Q193.45 718.472 193.45 711.365 Q193.45 704.236 191.621 700.694 Q189.815 697.129 186.181 697.129 M186.181 693.426 Q191.991 693.426 195.047 698.032 Q198.125 702.615 198.125 711.365 Q198.125 720.092 195.047 724.699 Q191.991 729.282 186.181 729.282 Q180.371 729.282 177.292 724.699 Q174.237 720.092 174.237 711.365 Q174.237 702.615 177.292 698.032 Q180.371 693.426 186.181 693.426 Z" fill="#000000" fill-rule="nonzero" fill-opacity="1" /><path clip-path="url(#clip730)" d="M116.668 422.381 L124.306 422.381 L124.306 396.015 L115.996 397.682 L115.996 393.423 L124.26 391.756 L128.936 391.756 L128.936 422.381 L136.575 422.381 L136.575 426.316 L116.668 426.316 L116.668 422.381 Z" fill="#000000" fill-rule="nonzero" fill-opacity="1" /><path clip-path="url(#clip730)" d="M146.066 391.756 L164.422 391.756 L164.422 395.691 L150.348 395.691 L150.348 404.164 Q151.366 403.816 152.385 403.654 Q153.403 403.469 154.422 403.469 Q160.209 403.469 163.589 406.64 Q166.968 409.812 166.968 415.228 Q166.968 420.807 163.496 423.909 Q160.024 426.987 153.704 426.987 Q151.528 426.987 149.26 426.617 Q147.015 426.247 144.607 425.506 L144.607 420.807 Q146.691 421.941 148.913 422.497 Q151.135 423.052 153.612 423.052 Q157.616 423.052 159.954 420.946 Q162.292 418.839 162.292 415.228 Q162.292 411.617 159.954 409.511 Q157.616 407.404 153.612 407.404 Q151.737 407.404 149.862 407.821 Q148.01 408.238 146.066 409.117 L146.066 391.756 Z" fill="#000000" fill-rule="nonzero" fill-opacity="1" /><path clip-path="url(#clip730)" d="M186.181 394.835 Q182.57 394.835 180.741 398.4 Q178.936 401.941 178.936 409.071 Q178.936 416.177 180.741 419.742 Q182.57 423.284 186.181 423.284 Q189.815 423.284 191.621 419.742 Q193.45 416.177 193.45 409.071 Q193.45 401.941 191.621 398.4 Q189.815 394.835 186.181 394.835 M186.181 391.131 Q191.991 391.131 195.047 395.738 Q198.125 400.321 198.125 409.071 Q198.125 417.798 195.047 422.404 Q191.991 426.987 186.181 426.987 Q180.371 426.987 177.292 422.404 Q174.237 417.798 174.237 409.071 Q174.237 400.321 177.292 395.738 Q180.371 391.131 186.181 391.131 Z" fill="#000000" fill-rule="nonzero" fill-opacity="1" /><path clip-path="url(#clip730)" d="M119.885 120.087 L136.204 120.087 L136.204 124.022 L114.26 124.022 L114.26 120.087 Q116.922 117.332 121.505 112.702 Q126.112 108.05 127.292 106.707 Q129.538 104.184 130.417 102.448 Q131.32 100.688 131.32 98.9987 Q131.32 96.2441 129.376 94.508 Q127.455 92.7719 124.353 92.7719 Q122.154 92.7719 119.7 93.5358 Q117.269 94.2996 114.492 95.8506 L114.492 91.1284 Q117.316 89.9941 119.769 89.4154 Q122.223 88.8367 124.26 88.8367 Q129.63 88.8367 132.825 91.5219 Q136.019 94.207 136.019 98.6978 Q136.019 100.827 135.209 102.749 Q134.422 104.647 132.316 107.239 Q131.737 107.911 128.635 111.128 Q125.533 114.323 119.885 120.087 Z" fill="#000000" fill-rule="nonzero" fill-opacity="1" /><path clip-path="url(#clip730)" d="M156.019 92.5404 Q152.408 92.5404 150.579 96.1052 Q148.774 99.6468 148.774 106.776 Q148.774 113.883 150.579 117.448 Q152.408 120.989 156.019 120.989 Q159.653 120.989 161.459 117.448 Q163.288 113.883 163.288 106.776 Q163.288 99.6468 161.459 96.1052 Q159.653 92.5404 156.019 92.5404 M156.019 88.8367 Q161.829 88.8367 164.885 93.4432 Q167.964 98.0265 167.964 106.776 Q167.964 115.503 164.885 120.11 Q161.829 124.693 156.019 124.693 Q150.209 124.693 147.13 120.11 Q144.075 115.503 144.075 106.776 Q144.075 98.0265 147.13 93.4432 Q150.209 88.8367 156.019 88.8367 Z" fill="#000000" fill-rule="nonzero" fill-opacity="1" /><path clip-path="url(#clip730)" d="M186.181 92.5404 Q182.57 92.5404 180.741 96.1052 Q178.936 99.6468 178.936 106.776 Q178.936 113.883 180.741 117.448 Q182.57 120.989 186.181 120.989 Q189.815 120.989 191.621 117.448 Q193.45 113.883 193.45 106.776 Q193.45 99.6468 191.621 96.1052 Q189.815 92.5404 186.181 92.5404 M186.181 88.8367 Q191.991 88.8367 195.047 93.4432 Q198.125 98.0265 198.125 106.776 Q198.125 115.503 195.047 120.11 Q191.991 124.693 186.181 124.693 Q180.371 124.693 177.292 120.11 Q174.237 115.503 174.237 106.776 Q174.237 98.0265 177.292 93.4432 Q180.371 88.8367 186.181 88.8367 Z" fill="#000000" fill-rule="nonzero" fill-opacity="1" /><path clip-path="url(#clip730)" d="M33.7671 914.088 L14.479 914.088 L14.479 908.232 L64.0042 908.232 L64.0042 914.088 L58.657 914.088 Q61.8398 915.934 63.3994 918.767 Q64.9272 921.568 64.9272 925.515 Q64.9272 931.976 59.771 936.05 Q54.6147 940.092 46.212 940.092 Q37.8093 940.092 32.6531 936.05 Q27.4968 931.976 27.4968 925.515 Q27.4968 921.568 29.0564 918.767 Q30.5842 915.934 33.7671 914.088 M46.212 934.045 Q52.6732 934.045 56.3653 931.403 Q60.0256 928.729 60.0256 924.082 Q60.0256 919.436 56.3653 916.762 Q52.6732 914.088 46.212 914.088 Q39.7508 914.088 36.0905 916.762 Q32.3984 919.436 32.3984 924.082 Q32.3984 928.729 36.0905 931.403 Q39.7508 934.045 46.212 934.045 Z" fill="#000000" fill-rule="nonzero" fill-opacity="1" /><path clip-path="url(#clip730)" d="M28.3562 896.169 L28.3562 890.312 L64.0042 890.312 L64.0042 896.169 L28.3562 896.169 M14.479 896.169 L14.479 890.312 L21.895 890.312 L21.895 896.169 L14.479 896.169 Z" fill="#000000" fill-rule="nonzero" fill-opacity="1" /><path clip-path="url(#clip730)" d="M29.4065 855.333 L34.9447 855.333 Q33.6716 857.815 33.035 860.489 Q32.3984 863.163 32.3984 866.027 Q32.3984 870.388 33.7352 872.584 Q35.072 874.748 37.7456 874.748 Q39.7826 874.748 40.9603 873.189 Q42.1061 871.629 43.1565 866.918 L43.6021 864.913 Q44.9389 858.675 47.3897 856.065 Q49.8086 853.423 54.1691 853.423 Q59.1344 853.423 62.0308 857.37 Q64.9272 861.285 64.9272 868.16 Q64.9272 871.024 64.3543 874.144 Q63.8132 877.231 62.6992 880.668 L56.6518 880.668 Q58.3387 877.422 59.198 874.271 Q60.0256 871.12 60.0256 868.032 Q60.0256 863.895 58.6251 861.667 Q57.1929 859.439 54.6147 859.439 Q52.2276 859.439 50.9545 861.062 Q49.6813 862.653 48.5037 868.096 L48.0262 870.133 Q46.8804 875.576 44.5251 877.995 Q42.138 880.414 38.0002 880.414 Q32.9713 880.414 30.2341 876.849 Q27.4968 873.284 27.4968 866.727 Q27.4968 863.481 27.9743 860.616 Q28.4517 857.752 29.4065 855.333 Z" fill="#000000" fill-rule="nonzero" fill-opacity="1" /><path clip-path="url(#clip730)" d="M18.2347 838.305 L28.3562 838.305 L28.3562 826.242 L32.9077 826.242 L32.9077 838.305 L52.2594 838.305 Q56.6199 838.305 57.8613 837.127 Q59.1026 835.917 59.1026 832.257 L59.1026 826.242 L64.0042 826.242 L64.0042 832.257 Q64.0042 839.037 61.4897 841.615 Q58.9434 844.193 52.2594 844.193 L32.9077 844.193 L32.9077 848.49 L28.3562 848.49 L28.3562 844.193 L18.2347 844.193 L18.2347 838.305 Z" fill="#000000" fill-rule="nonzero" fill-opacity="1" /><path clip-path="url(#clip730)" d="M46.0847 802.338 Q46.0847 809.436 47.7079 812.173 Q49.3312 814.911 53.2461 814.911 Q56.3653 814.911 58.2114 812.874 Q60.0256 810.805 60.0256 807.272 Q60.0256 802.402 56.5881 799.474 Q53.1188 796.514 47.3897 796.514 L46.0847 796.514 L46.0847 802.338 M43.6657 790.657 L64.0042 790.657 L64.0042 796.514 L58.5933 796.514 Q61.8398 798.519 63.3994 801.511 Q64.9272 804.503 64.9272 808.831 Q64.9272 814.306 61.8716 817.552 Q58.7843 820.767 53.6281 820.767 Q47.6125 820.767 44.5569 816.757 Q41.5014 812.714 41.5014 804.725 L41.5014 796.514 L40.9285 796.514 Q36.8862 796.514 34.6901 799.187 Q32.4621 801.829 32.4621 806.635 Q32.4621 809.691 33.1941 812.587 Q33.9262 815.484 35.3903 818.157 L29.9795 818.157 Q28.7381 814.942 28.1334 811.919 Q27.4968 808.895 27.4968 806.03 Q27.4968 798.296 31.5072 794.477 Q35.5176 790.657 43.6657 790.657 Z" fill="#000000" fill-rule="nonzero" fill-opacity="1" /><path clip-path="url(#clip730)" d="M42.4881 748.962 L64.0042 748.962 L64.0042 754.818 L42.679 754.818 Q37.6183 754.818 35.1038 756.792 Q32.5894 758.765 32.5894 762.712 Q32.5894 767.454 35.6131 770.192 Q38.6368 772.929 43.8567 772.929 L64.0042 772.929 L64.0042 778.817 L28.3562 778.817 L28.3562 772.929 L33.8944 772.929 Q30.6797 770.828 29.0883 767.995 Q27.4968 765.131 27.4968 761.407 Q27.4968 755.264 31.3163 752.113 Q35.1038 748.962 42.4881 748.962 Z" fill="#000000" fill-rule="nonzero" fill-opacity="1" /><path clip-path="url(#clip730)" d="M29.7248 711.627 L35.1993 711.627 Q33.8307 714.11 33.1623 716.624 Q32.4621 719.107 32.4621 721.653 Q32.4621 727.35 36.0905 730.501 Q39.6872 733.652 46.212 733.652 Q52.7369 733.652 56.3653 730.501 Q59.9619 727.35 59.9619 721.653 Q59.9619 719.107 59.2935 716.624 Q58.5933 714.11 57.2247 711.627 L62.6355 711.627 Q63.7814 714.078 64.3543 716.72 Q64.9272 719.33 64.9272 722.29 Q64.9272 730.342 59.8664 735.085 Q54.8057 739.827 46.212 739.827 Q37.491 739.827 32.4939 735.053 Q27.4968 730.247 27.4968 721.908 Q27.4968 719.202 28.0697 716.624 Q28.6108 714.046 29.7248 711.627 Z" fill="#000000" fill-rule="nonzero" fill-opacity="1" /><path clip-path="url(#clip730)" d="M44.7161 670.95 L47.5806 670.95 L47.5806 697.877 Q53.6281 697.495 56.8109 694.249 Q59.9619 690.97 59.9619 685.146 Q59.9619 681.772 59.1344 678.621 Q58.3069 675.438 56.6518 672.319 L62.1899 672.319 Q63.5267 675.47 64.227 678.78 Q64.9272 682.09 64.9272 685.496 Q64.9272 694.026 59.9619 699.023 Q54.9967 703.988 46.5303 703.988 Q37.7774 703.988 32.6531 699.278 Q27.4968 694.535 27.4968 686.514 Q27.4968 679.321 32.1438 675.152 Q36.7589 670.95 44.7161 670.95 M42.9973 676.807 Q38.1912 676.87 35.3266 679.512 Q32.4621 682.122 32.4621 686.451 Q32.4621 691.352 35.2312 694.312 Q38.0002 697.241 43.0292 697.686 L42.9973 676.807 Z" fill="#000000" fill-rule="nonzero" fill-opacity="1" /><path clip-path="url(#clip730)" d="M55.9197 659.842 L55.9197 653.126 L61.3942 653.126 L71.5793 658.346 L71.5793 662.452 L61.3942 659.842 L55.9197 659.842 Z" fill="#000000" fill-rule="nonzero" fill-opacity="1" /><path clip-path="url(#clip730)" d="M14.479 620.12 L14.479 614.232 L43.7294 614.232 L28.3562 596.758 L28.3562 589.278 L45.0344 608.184 L64.0042 588.482 L64.0042 596.121 L46.5939 614.232 L64.0042 614.232 L64.0042 620.12 L14.479 620.12 Z" fill="#000000" fill-rule="nonzero" fill-opacity="1" /><path clip-path="url(#clip730)" d="M35.1993 554.394 Q31.2526 552.198 29.3747 549.142 Q27.4968 546.087 27.4968 541.949 Q27.4968 536.379 31.4117 533.355 Q35.2948 530.332 42.4881 530.332 L64.0042 530.332 L64.0042 536.22 L42.679 536.22 Q37.5546 536.22 35.072 538.034 Q32.5894 539.848 32.5894 543.572 Q32.5894 548.124 35.6131 550.766 Q38.6368 553.407 43.8567 553.407 L64.0042 553.407 L64.0042 559.296 L42.679 559.296 Q37.5228 559.296 35.072 561.11 Q32.5894 562.924 32.5894 566.712 Q32.5894 571.2 35.6449 573.841 Q38.6686 576.483 43.8567 576.483 L64.0042 576.483 L64.0042 582.371 L28.3562 582.371 L28.3562 576.483 L33.8944 576.483 Q30.616 574.478 29.0564 571.677 Q27.4968 568.876 27.4968 565.025 Q27.4968 561.142 29.4702 558.436 Q31.4436 555.699 35.1993 554.394 Z" fill="#000000" fill-rule="nonzero" fill-opacity="1" /><polyline clip-path="url(#clip732)" style="stroke:#009af9; stroke-linecap:round; stroke-linejoin:round; stroke-width:4; stroke-opacity:1; fill:none" points="294.087,1315.92 306.657,1247.6 319.228,1179.28 331.798,1110.96 344.369,1042.65 356.939,974.327 369.51,906.008 382.08,837.69 394.651,769.371 407.221,701.053 419.792,632.734 432.362,564.416 444.933,496.097 457.503,427.778 470.074,359.46 482.644,291.141 495.215,222.823 507.785,154.504 520.356,86.1857 532.926,154.504 545.496,222.823 558.067,291.141 570.637,359.46 583.208,427.778 595.778,496.097 608.349,564.416 620.919,632.734 633.49,701.053 646.06,769.371 658.631,837.69 671.201,906.008 683.772,974.327 696.342,1042.65 708.913,1110.96 721.483,1179.28 734.054,1247.6 746.624,1315.92 759.195,1384.24 771.765,1315.92 784.336,1247.6 796.906,1179.28 809.477,1110.96 822.047,1042.65 834.618,974.327 847.188,906.008 859.759,837.69 872.329,769.371 884.9,701.053 897.47,632.734 910.041,564.416 922.611,496.097 935.182,427.778 947.752,359.46 960.323,291.141 972.893,222.823 985.464,154.504 998.034,86.1857 1010.6,154.504 1023.18,222.823 1035.75,291.141 1048.32,359.46 1060.89,427.778 1073.46,496.097 1086.03,564.416 1098.6,632.734 1111.17,701.053 1123.74,769.371 1136.31,837.69 1148.88,906.008 1161.45,974.327 1174.02,1042.65 1186.59,1110.96 1199.16,1179.28 1211.73,1247.6 1224.3,1315.92 1236.87,1384.24 1249.44,1315.92 1262.01,1247.6 1274.58,1179.28 1287.16,1110.96 1299.73,1042.65 1312.3,974.327 1324.87,906.008 1337.44,837.69 1350.01,769.371 1362.58,701.053 1375.15,632.734 1387.72,564.416 1400.29,496.097 1412.86,427.778 1425.43,359.46 1438,291.141 1450.57,222.823 1463.14,154.504 1475.71,86.1857 1488.28,154.504 1500.85,222.823 1513.42,291.141 1525.99,359.46 1538.57,427.778 1551.14,496.097 1563.71,564.416 1576.28,632.734 1588.85,701.053 1601.42,769.371 1613.99,837.69 1626.56,906.008 1639.13,974.327 1651.7,1042.65 1664.27,1110.96 1676.84,1179.28 1689.41,1247.6 1701.98,1315.92 1714.55,1384.24 1727.12,1315.92 1739.69,1247.6 1752.26,1179.28 1764.83,1110.96 1777.4,1042.65 1789.98,974.327 1802.55,906.008 1815.12,837.69 1827.69,769.371 1840.26,701.053 1852.83,632.734 1865.4,564.416 1877.97,496.097 1890.54,427.778 1903.11,359.46 1915.68,291.141 1928.25,222.823 1940.82,154.504 1953.39,86.1857 1965.96,154.504 1978.53,222.823 1991.1,291.141 2003.67,359.46 2016.24,427.778 2028.81,496.097 2041.38,564.416 2053.96,632.734 2066.53,701.053 2079.1,769.371 2091.67,837.69 2104.24,906.008 2116.81,974.327 2129.38,1042.65 2141.95,1110.96 2154.52,1179.28 2167.09,1247.6 2179.66,1315.92 2192.23,1384.24 2204.8,1315.92 2217.37,1247.6 2229.94,1179.28 2242.51,1110.96 2255.08,1042.65 2267.65,974.327 2280.22,906.008 2292.79,837.69 "/>
</svg>
